<?xml version="1.0" standalone="no"?>
<!DOCTYPE svg PUBLIC "-//W3C//DTD SVG 20010904//EN"
 "http://www.w3.org/TR/2001/REC-SVG-20010904/DTD/svg10.dtd">
<svg version="1.0" xmlns="http://www.w3.org/2000/svg"
 width="1200.000000pt" height="1200.000000pt" viewBox="0 0 1200.000000 1200.000000"
 preserveAspectRatio="xMidYMid meet">

<g transform="translate(0.000000,1200.000000) scale(0.100000,-0.100000)"
fill="#000000" stroke="none">
<path d="M0 6000 l0 -6000 6000 0 6000 0 0 6000 0 6000 -6000 0 -6000 0 0
-6000z m2630 950 l0 -110 -45 0 -45 0 0 104 0 105 43 4 c23 2 43 4 45 5 1 1 2
-47 2 -108z m3050 30 c-14 -11 -60 -31 -102 -46 -43 -14 -78 -31 -78 -37 0 -7
14 -59 31 -117 36 -126 51 -345 29 -424 -44 -157 -271 -235 -347 -120 -9 14
-18 51 -20 83 -4 46 0 62 19 91 54 81 163 27 129 -63 -7 -17 -18 -27 -31 -27
-16 0 -20 7 -20 38 0 20 -5 44 -10 52 -9 13 -12 12 -26 -5 -12 -15 -14 -33 -9
-75 8 -66 26 -97 61 -106 75 -19 110 60 99 220 -6 93 -57 401 -67 411 -3 3
-28 -2 -57 -11 -29 -8 -59 -13 -67 -10 -22 8 -18 46 5 46 23 0 183 41 311 80
107 32 127 37 155 39 18 0 18 -1 -5 -19z m-1532 -55 c113 -27 175 -83 209
-192 16 -50 16 -59 0 -141 -42 -217 -172 -343 -355 -344 -71 0 -95 12 -65 33
19 14 19 25 11 309 -8 252 -12 297 -25 307 -19 15 -17 18 17 32 38 15 133 13
208 -4z m-1240 -30 c3 -3 -36 -103 -44 -113 -6 -9 -74 21 -74 31 0 6 10 35 21
63 l22 52 36 -15 c20 -8 37 -16 39 -18z m-542 -31 c14 -31 24 -57 22 -58 -14
-8 -61 -26 -69 -26 -10 0 -49 82 -49 104 0 13 35 34 58 35 7 1 24 -24 38 -55z
m-216 -209 l-30 -30 -77 77 -77 77 29 31 29 30 78 -77 78 -78 -30 -30z m980
50 l-75 -75 -30 30 -30 30 75 75 75 75 30 -30 30 -30 -75 -75z m-422 21 c103
-28 181 -73 251 -144 108 -111 151 -215 151 -368 0 -198 -113 -379 -293 -469
-38 -19 -76 -35 -83 -35 -10 0 -14 -15 -14 -55 l0 -55 66 0 65 0 -3 -232 c-3
-206 -5 -238 -22 -272 -97 -195 -374 -198 -470 -4 -26 51 -26 55 -26 280 l0
228 65 0 65 0 0 51 c0 48 -2 51 -32 61 -108 38 -202 107 -262 193 -55 78 -83
145 -97 236 -48 312 196 596 516 598 39 1 94 -6 123 -13z m3416 -36 c35 -13
57 -83 34 -107 -21 -20 -38 -9 -38 26 0 15 -5 32 -12 39 -16 16 -48 -4 -48
-31 0 -38 93 -163 113 -150 19 12 67 98 67 121 0 81 137 144 202 92 40 -31 42
-110 3 -110 -10 0 -15 11 -15 34 0 41 -23 65 -45 46 -20 -17 -19 -53 3 -88 19
-32 79 -102 86 -102 3 0 28 33 56 74 50 75 80 107 66 71 -3 -10 -29 -55 -56
-101 -44 -72 -49 -85 -40 -109 31 -80 -26 -175 -104 -175 -34 0 -66 33 -66 69
0 15 9 40 20 54 11 14 20 30 20 35 0 5 -21 27 -46 47 -25 21 -54 51 -64 67
l-17 28 -30 -48 c-21 -34 -27 -54 -22 -67 24 -62 0 -144 -51 -170 -41 -21 -67
-19 -95 10 -32 31 -31 53 1 101 l26 38 -33 26 c-19 13 -48 40 -66 58 l-32 33
-35 -69 c-47 -93 -92 -132 -152 -132 -91 0 -136 57 -137 172 -1 86 30 151 84
178 49 25 70 25 97 0 38 -36 25 -122 -29 -192 -16 -20 -29 -44 -29 -53 0 -25
19 -55 35 -55 38 0 155 175 155 233 0 13 10 37 22 52 45 57 111 79 172 55z
m-1363 -26 c9 -8 27 -58 39 -112 28 -123 35 -137 50 -97 60 164 93 236 104
224 5 -5 -79 -301 -95 -331 -16 -31 -28 -38 -65 -38 -46 0 -61 18 -82 100
l-19 75 -31 -61 c-44 -86 -89 -124 -150 -124 -72 0 -108 27 -128 96 -29 102 3
212 75 252 48 27 61 27 95 1 44 -35 32 -116 -29 -197 -34 -43 -36 -70 -9 -92
7 -7 22 -9 33 -5 23 7 78 78 111 144 20 41 21 48 10 108 -11 54 -10 67 1 74
18 12 68 3 90 -17z m-2785 -145 c27 -12 50 -23 52 -24 5 -4 -26 -75 -33 -75
-6 0 -105 40 -113 46 -5 3 31 74 39 74 3 0 28 -10 55 -21z m1303 -15 c7 -19
11 -37 9 -38 -12 -9 -111 -47 -114 -44 -2 2 -10 19 -18 38 l-15 35 47 22 c66
30 76 28 91 -13z m-1309 -284 l0 -40 -110 0 -110 0 0 40 0 40 110 0 110 0 0
-40z m1450 0 l0 -40 -108 0 -109 0 0 40 0 40 109 0 108 0 0 -40z m-1403 -235
c9 -19 14 -37 12 -40 -3 -2 -30 -15 -61 -29 l-55 -25 -14 41 c-8 25 -10 43 -4
45 6 2 28 12 50 22 54 26 53 26 72 -14z m1219 14 c27 -11 50 -22 52 -24 6 -5
-21 -75 -28 -75 -4 0 -32 10 -62 23 l-56 22 15 38 c8 20 19 37 23 37 5 0 30
-9 56 -21z m-1083 -217 l27 -28 -78 -77 -78 -77 -29 30 -29 30 74 75 c41 41
77 75 80 75 4 0 18 -13 33 -28z m1022 -152 l-30 -30 -75 75 -74 75 29 30 29
31 76 -76 75 -75 -30 -30z m1168 -71 c12 -7 25 -17 29 -23 9 -14 10 -59 2 -81
-9 -23 -151 -134 -181 -141 -30 -8 -27 -29 20 -123 27 -55 38 -67 73 -80 22
-9 52 -24 65 -33 24 -17 24 -17 -24 -17 -89 -1 -144 48 -177 159 -11 38 -25
72 -29 75 -9 5 -61 -114 -61 -139 0 -8 -11 -17 -24 -20 -13 -3 -31 -9 -40 -12
-19 -7 35 117 111 256 29 52 50 96 48 98 -4 4 -24 -8 -71 -43 -17 -12 -27 -1
-20 22 12 38 157 110 229 112 16 1 38 -4 50 -10z m1377 -148 c0 -28 -26 -47
-45 -31 -11 9 -12 17 -4 31 13 25 49 25 49 0z m-1087 -73 c3 -29 9 -73 13 -98
4 -32 1 -57 -9 -83 -13 -31 -21 -37 -46 -37 -27 0 -31 4 -41 41 -9 34 -9 44 3
56 13 13 15 11 21 -11 7 -27 20 -34 31 -16 3 5 1 29 -5 52 l-12 42 -34 -40
c-19 -21 -48 -58 -65 -81 -31 -44 -49 -54 -49 -28 0 14 -3 14 -30 0 -16 -8
-38 -15 -49 -15 -23 0 -61 44 -61 72 0 33 27 84 65 122 29 30 43 37 68 34 28
-3 32 -7 35 -36 5 -45 -18 -76 -73 -98 -51 -21 -59 -50 -13 -47 55 4 99 35
149 106 27 39 49 76 49 83 0 12 26 33 41 34 4 0 9 -24 12 -52z m885 10 c0 -24
5 -56 11 -71 15 -39 14 -70 -5 -117 -14 -33 -21 -40 -44 -40 -24 0 -30 6 -40
35 -12 35 -6 75 11 75 5 0 9 -9 9 -19 0 -24 26 -35 34 -15 3 9 1 24 -4 34 -6
10 -10 29 -10 41 0 22 -2 21 -30 -11 -16 -19 -46 -59 -66 -87 -40 -57 -60 -68
-50 -27 6 22 5 24 -13 15 -29 -16 -43 8 -35 60 l7 43 -29 -21 c-16 -12 -49
-42 -74 -67 -68 -71 -90 -56 -50 33 26 57 26 61 -14 61 -30 0 -35 -4 -41 -31
-9 -39 -71 -109 -97 -109 -33 0 -78 29 -78 50 0 11 -5 20 -10 20 -22 0 -76
-28 -94 -49 -21 -23 -46 -27 -64 -9 -21 21 -14 48 13 49 14 1 31 2 37 3 7 0
22 18 33 38 15 29 17 40 8 49 -9 9 -18 8 -37 -4 -44 -29 -76 -82 -120 -203
-44 -118 -74 -160 -97 -137 -11 11 22 111 51 153 18 26 70 136 96 201 17 41
41 58 50 34 5 -13 10 -13 35 2 52 31 85 -14 58 -78 -6 -16 -10 -32 -7 -34 9
-9 48 8 48 21 0 22 61 84 98 100 34 14 37 13 62 -11 37 -35 101 -35 124 0 16
25 56 35 56 15 0 -6 -12 -34 -26 -63 l-27 -52 57 53 c34 32 63 52 74 50 18 -4
18 -12 6 -87 l-7 -43 30 16 c29 14 97 99 110 134 20 57 51 56 51 0z m1208 20
c-3 -13 2 -51 10 -86 9 -34 13 -69 10 -77 -3 -8 -3 -15 -1 -15 7 0 99 131 115
164 8 17 23 32 32 34 13 3 16 -5 16 -40 0 -24 5 -56 11 -71 15 -39 14 -70 -5
-117 -14 -33 -21 -40 -44 -40 -24 0 -30 6 -40 35 -12 35 -6 75 11 75 5 0 9 -9
9 -19 0 -24 26 -35 34 -15 3 9 1 24 -4 34 -6 10 -10 29 -10 41 0 22 -2 21 -30
-11 -16 -19 -46 -59 -66 -87 -34 -48 -41 -53 -75 -53 -28 0 -41 5 -49 20 -15
27 -9 82 9 88 8 3 11 0 8 -5 -4 -6 0 -19 8 -29 19 -27 27 -2 17 56 l-7 44 -70
-89 c-48 -61 -71 -84 -73 -72 -4 21 -6 21 -44 1 -39 -20 -75 -11 -90 24 -7 15
-13 28 -14 30 -1 2 -19 -6 -40 -17 -20 -11 -42 -18 -47 -14 -5 3 -7 28 -5 54
3 27 2 49 -2 49 -3 0 -37 -30 -73 -66 -71 -69 -104 -80 -91 -29 l7 26 -56 -35
c-65 -42 -82 -44 -114 -14 -25 23 -31 74 -13 108 21 39 -50 -1 -109 -61 -66
-68 -96 -76 -114 -30 l-11 29 -42 -29 c-67 -45 -104 -35 -104 28 0 46 55 153
78 153 32 0 31 -10 -4 -83 -39 -81 -33 -92 31 -59 29 14 42 30 58 72 14 34 31
59 46 67 38 18 42 7 16 -50 -14 -28 -25 -67 -25 -86 l0 -34 26 24 c31 29 54
71 54 98 0 21 44 61 68 61 14 0 14 -13 -3 -52 -13 -32 39 -21 84 16 23 19 51
38 62 41 46 15 66 -50 30 -97 -11 -13 -38 -33 -60 -43 -68 -30 -48 -64 23 -40
49 17 101 67 132 128 16 30 31 47 43 47 30 0 31 -11 5 -61 -13 -27 -22 -49
-20 -49 2 0 25 20 50 45 26 25 56 45 68 45 19 0 20 -4 14 -42 -3 -24 -9 -53
-12 -65 -14 -50 25 -22 100 72 17 21 45 44 64 53 32 16 35 16 49 -3 17 -23 11
-70 -12 -95 -9 -10 -33 -25 -55 -35 -67 -30 -46 -64 24 -40 51 18 77 44 137
137 48 76 89 105 75 56z"/>
<path d="M4080 6772 c0 -60 3 -177 7 -260 l6 -151 36 31 c60 52 82 106 90 227
8 111 1 166 -26 207 -18 28 -62 54 -93 54 -19 0 -20 -6 -20 -108z"/>
<path d="M2547 6240 c-43 -116 -77 -216 -77 -224 0 -12 69 -40 78 -31 2 2 23
57 47 122 24 65 59 162 79 216 l35 98 -22 8 c-68 25 -57 40 -140 -189z"/>
<path d="M2312 6297 l-82 -82 85 -85 85 -84 30 29 30 29 -55 56 -55 56 55 54
55 54 -27 28 c-15 15 -29 28 -33 28 -3 0 -42 -37 -88 -83z"/>
<path d="M2745 6350 l-29 -30 52 -53 52 -52 -52 -53 -53 -52 33 -32 32 -33 85
85 85 85 -82 82 c-46 46 -85 83 -88 83 -4 0 -19 -14 -35 -30z"/>
<path d="M2540 5645 l0 -45 45 0 45 0 0 45 0 45 -45 0 -45 0 0 -45z"/>
<path d="M2540 5385 l0 -45 45 0 45 0 0 45 0 45 -45 0 -45 0 0 -45z"/>
<path d="M2540 5205 l0 -45 45 0 45 0 0 45 0 45 -45 0 -45 0 0 -45z"/>
<path d="M5740 6604 c-6 -15 -10 -48 -8 -73 l3 -46 23 35 c15 23 22 47 20 69
-4 43 -25 51 -38 15z"/>
<path d="M6082 6337 c-20 -24 -24 -63 -8 -76 31 -26 59 25 40 73 -7 19 -18 20
-32 3z"/>
<path d="M6387 6332 c-22 -24 -22 -68 0 -76 28 -11 46 17 39 58 -8 41 -16 44
-39 18z"/>
<path d="M4501 6611 c-6 -11 -11 -46 -11 -78 l0 -58 22 34 c23 36 31 111 11
118 -6 2 -16 -5 -22 -16z"/>
<path d="M4253 5523 c-13 -2 -23 -8 -23 -12 0 -4 -23 -43 -50 -86 -28 -44 -46
-81 -40 -83 28 -10 190 111 190 142 0 43 -16 51 -77 39z"/>
<path d="M4390 5275 c-19 -19 -31 -38 -27 -41 9 -9 54 22 67 45 18 34 -6 32
-40 -4z"/>
<path d="M4990 5292 c-13 -10 -23 -33 -27 -59 -5 -36 -3 -42 18 -48 44 -14 91
79 57 113 -16 16 -22 15 -48 -6z"/>
<path d="M6031 5270 c-20 -26 -27 -40 -18 -40 20 0 67 46 67 65 0 25 -15 17
-49 -25z"/>
<path d="M6480 5270 c-17 -22 -27 -40 -22 -40 17 0 72 51 72 66 0 24 -17 15
-50 -26z"/>
</g>
</svg>
